{
	"asset":{
		"generator":"Khronos glTF Blender I/O v4.1.62",
		"version":"2.0"
	},
	"scene":0,
	"scenes":[
		{
			"name":"Scene",
			"nodes":[
				42
			]
		}
	],
	"nodes":[
		{
			"name":"head0_end",
			"rotation":[
				8.939969120547175e-08,
				4.423782229423523e-09,
				3.725290298461914e-09,
				1
			],
			"scale":[
				1,
				0.9999999403953552,
				1
			],
			"translation":[
				8.381903171539307e-09,
				12.78893756866455,
				2.632616087794304e-06
			]
		},
		{
			"children":[
				0
			],
			"name":"head0",
			"rotation":[
				0.7772181630134583,
				0.009827434085309505,
				0.014101138338446617,
				0.6289964914321899
			],
			"scale":[
				0.9999998211860657,
				0.9999998211860657,
				0.9999998211860657
			],
			"translation":[
				2.9802322387695312e-08,
				7.984084606170654,
				1.3049575500190258e-06
			]
		},
		{
			"children":[
				1
			],
			"name":"neck1",
			"rotation":[
				0.0262619499117136,
				-0.003995208535343409,
				-0.013172396458685398,
				0.9995603561401367
			],
			"scale":[
				0.9999998807907104,
				1,
				0.9999999403953552
			],
			"translation":[
				-2.9788452593493275e-08,
				14.461941719055176,
				-3.3383948903065175e-06
			]
		},
		{
			"children":[
				2
			],
			"name":"neck0",
			"rotation":[
				-0.4371790289878845,
				0.006060994230210781,
				0.009662924334406853,
				0.8993021845817566
			],
			"scale":[
				1,
				1.0000001192092896,
				1.0000001192092896
			],
			"translation":[
				-1.1175870895385742e-08,
				7.490888595581055,
				-7.112976163625717e-07
			]
		},
		{
			"name":"leg_front_right_toe_end",
			"rotation":[
				3.4272665061507723e-07,
				1.2665992699112394e-07,
				1.7881379221762472e-07,
				1
			],
			"translation":[
				8.702349987288471e-07,
				3.000004768371582,
				-4.4784678721043747e-07
			]
		},
		{
			"children":[
				4
			],
			"name":"leg_front_right_toe",
			"rotation":[
				-0.5330291986465454,
				-0.20103619992733002,
				-0.2010359913110733,
				0.7968994975090027
			],
			"scale":[
				1.0000001192092896,
				1,
				1
			],
			"translation":[
				7.152557373046875e-07,
				6.1265788078308105,
				-9.5367431640625e-07
			]
		},
		{
			"children":[
				5
			],
			"name":"leg_front_right_ankle",
			"rotation":[
				-0.032158419489860535,
				0.10081078112125397,
				0.01027944590896368,
				0.9943326711654663
			],
			"scale":[
				0.9999999403953552,
				1,
				0.9999999403953552
			],
			"translation":[
				-4.76837158203125e-07,
				11.895484924316406,
				0
			]
		},
		{
			"children":[
				6
			],
			"name":"leg_front_right_bot0",
			"rotation":[
				-3.073248322493782e-08,
				-0.9697335958480835,
				-0.15820811688899994,
				0.18597577512264252
			],
			"translation":[
				-1.1399492905184161e-07,
				16.819995880126953,
				-5.173495765120606e-07
			]
		},
		{
			"children":[
				7
			],
			"name":"leg_front_right_top1",
			"rotation":[
				-7.70512471603979e-08,
				-0.18264880776405334,
				0.5395253300666809,
				0.8219196200370789
			],
			"scale":[
				1.0000001192092896,
				1,
				0.9999999403953552
			],
			"translation":[
				0,
				10.147793769836426,
				-7.152557373046875e-07
			]
		},
		{
			"children":[
				8
			],
			"name":"leg_front_right_top0",
			"rotation":[
				-0.49679556488990784,
				0.5492622256278992,
				0.6131175756454468,
				0.27493998408317566
			],
			"scale":[
				1.0000001192092896,
				1,
				1
			],
			"translation":[
				-1.1175870895385742e-08,
				7.490888595581055,
				-7.112976163625717e-07
			]
		},
		{
			"name":"leg_front_left_toe_end",
			"rotation":[
				-7.450583439094771e-08,
				2.9057258643661044e-07,
				1.4901169720360485e-07,
				1
			],
			"translation":[
				1.6689546100678854e-07,
				3.000002145767212,
				8.865457630236051e-07
			]
		},
		{
			"children":[
				10
			],
			"name":"leg_front_left_toe",
			"rotation":[
				-0.5330287218093872,
				0.2010355293750763,
				0.20103570818901062,
				0.7969000935554504
			],
			"scale":[
				1,
				0.9999998807907104,
				0.9999999403953552
			],
			"translation":[
				7.152557373046875e-07,
				6.126577377319336,
				-9.5367431640625e-07
			]
		},
		{
			"children":[
				11
			],
			"name":"leg_front_left_ankle",
			"rotation":[
				-0.03215884789824486,
				-0.10081072151660919,
				-0.010279316455125809,
				0.9943326115608215
			],
			"scale":[
				0.9999999403953552,
				1,
				0.9999999403953552
			],
			"translation":[
				5.960464477539062e-07,
				11.895490646362305,
				-1.430511474609375e-06
			]
		},
		{
			"children":[
				12
			],
			"name":"leg_front_left_bot0",
			"rotation":[
				-5.378184653181961e-08,
				0.9697336554527283,
				0.15820790827274323,
				0.18597549200057983
			],
			"scale":[
				1,
				1.0000001192092896,
				1
			],
			"translation":[
				-5.468698986987874e-07,
				16.82000732421875,
				-4.3986318587485584e-07
			]
		},
		{
			"children":[
				13
			],
			"name":"leg_front_left_top1",
			"rotation":[
				-1.1748444705972361e-07,
				0.19172745943069458,
				-0.5325016379356384,
				0.8244286775588989
			],
			"scale":[
				0.9999999403953552,
				0.9999998807907104,
				0.9999998807907104
			],
			"translation":[
				2.384185791015625e-07,
				9.794778823852539,
				-6.556510925292969e-07
			]
		},
		{
			"children":[
				14
			],
			"name":"leg_front_left_top0",
			"rotation":[
				-0.4988405406475067,
				-0.5526230335235596,
				-0.6101664304733276,
				0.2710403501987457
			],
			"scale":[
				1,
				0.9999998211860657,
				1.0000001192092896
			],
			"translation":[
				-1.1175870895385742e-08,
				7.490888595581055,
				-7.112976163625717e-07
			]
		},
		{
			"children":[
				3,
				9,
				15
			],
			"name":"body_top1",
			"rotation":[
				-0.021528225392103195,
				-2.0512497940217145e-05,
				0.00012170718400739133,
				0.9997682571411133
			],
			"scale":[
				0.9999999403953552,
				0.9999999403953552,
				1
			],
			"translation":[
				7.450580596923828e-09,
				7.514264106750488,
				-4.90283127874136e-07
			]
		},
		{
			"children":[
				16
			],
			"name":"body_top0",
			"rotation":[
				-0.1141899824142456,
				-0.007513839285820723,
				-0.007227703463286161,
				0.9934042692184448
			],
			"scale":[
				0.9999999403953552,
				1.0000001192092896,
				0.9999999403953552
			],
			"translation":[
				-2.9802322387695312e-08,
				6.59260892868042,
				4.76837158203125e-07
			]
		},
		{
			"name":"tail5_end",
			"rotation":[
				-1.0705551858336548e-06,
				-5.029141547652216e-08,
				-1.5273690223693848e-07,
				1
			],
			"scale":[
				1,
				1.0000001192092896,
				1.0000001192092896
			],
			"translation":[
				2.384185791015625e-07,
				2.539200782775879,
				-1.5422701835632324e-06
			]
		},
		{
			"children":[
				18
			],
			"name":"tail5",
			"rotation":[
				-0.05912184715270996,
				0.0023625576868653297,
				-0.025992101058363914,
				0.9979095458984375
			],
			"translation":[
				-1.1920928955078125e-07,
				1.2705326080322266,
				-2.5294721126556396e-06
			]
		},
		{
			"children":[
				19
			],
			"name":"tail4",
			"rotation":[
				1.131789872488298e-06,
				1.1082740059009666e-07,
				1.210719524635806e-08,
				1
			],
			"scale":[
				0.9999999403953552,
				0.9999999403953552,
				0.9999999403953552
			],
			"translation":[
				-6.556510925292969e-07,
				1.3208056688308716,
				9.033828973770142e-07
			]
		},
		{
			"children":[
				20
			],
			"name":"tail3",
			"rotation":[
				-0.12320125102996826,
				-0.008476607501506805,
				-0.010809660889208317,
				0.9922866225242615
			],
			"scale":[
				0.9999999403953552,
				0.9999997615814209,
				0.9999998807907104
			],
			"translation":[
				3.8743019104003906e-07,
				1.5586308240890503,
				2.1043233573436737e-06
			]
		},
		{
			"children":[
				21
			],
			"name":"tail2",
			"rotation":[
				-4.388857064441254e-07,
				2.7939675018018306e-09,
				-7.427296822015705e-08,
				1
			],
			"scale":[
				1.0000001192092896,
				1.0000001192092896,
				1.0000001192092896
			],
			"translation":[
				-3.725290298461914e-07,
				1.519521951675415,
				-1.240987330675125e-07
			]
		},
		{
			"children":[
				22
			],
			"name":"tail1",
			"rotation":[
				0.08648207038640976,
				-0.02053702063858509,
				0.15713147819042206,
				0.9835694432258606
			],
			"scale":[
				1,
				0.9999999403953552,
				1
			],
			"translation":[
				-2.682209014892578e-07,
				1.784660816192627,
				-4.84660267829895e-06
			]
		},
		{
			"children":[
				23
			],
			"name":"tail0",
			"rotation":[
				0.32208022475242615,
				0.17608755826950073,
				-0.34624695777893066,
				0.8633484840393066
			],
			"scale":[
				0.9999998807907104,
				0.9999999403953552,
				0.9999999403953552
			],
			"translation":[
				0,
				4.930676460266113,
				-2.980232238769531e-07
			]
		},
		{
			"children":[
				24
			],
			"name":"pelvis",
			"rotation":[
				-0.019149726256728172,
				-0.09030690789222717,
				0.1353871077299118,
				0.9864827990531921
			],
			"scale":[
				1,
				0.9999999403953552,
				1
			],
			"translation":[
				2.1553518081418588e-08,
				10.77692699432373,
				-4.74568594199809e-07
			]
		},
		{
			"name":"leg_hind_left_toe_end",
			"rotation":[
				-1.073046816332801e-12,
				-2.607702640489151e-07,
				-1.5894553939688194e-07,
				1
			],
			"translation":[
				-4.0831673686625436e-07,
				3.000004291534424,
				-1.6110776641653501e-06
			]
		},
		{
			"children":[
				26
			],
			"name":"leg_hind_left_toe",
			"rotation":[
				0.052992772310972214,
				0.7051177024841309,
				0.7051188349723816,
				0.05299251899123192
			],
			"scale":[
				0.9999998807907104,
				1,
				0.9999998807907104
			],
			"translation":[
				2.2613494365941733e-07,
				13.046567916870117,
				-2.316157633686089e-06
			]
		},
		{
			"children":[
				27
			],
			"name":"leg_hind_left_ankle",
			"rotation":[
				0.06688141077756882,
				0.8899216651916504,
				-0.3633917272090912,
				0.2674187123775482
			],
			"scale":[
				1,
				0.9999998211860657,
				1.0000001192092896
			],
			"translation":[
				3.5762786865234375e-07,
				12.01375961303711,
				-7.152557373046875e-07
			]
		},
		{
			"children":[
				28
			],
			"name":"leg_hind_left_bot0",
			"rotation":[
				1.2522947656634642e-07,
				-0.8924313187599182,
				0.38241103291511536,
				0.23943296074867249
			],
			"scale":[
				1.0000001192092896,
				1.000000238418579,
				1
			],
			"translation":[
				1.1323982107569464e-07,
				12.520018577575684,
				-1.3147400750312954e-06
			]
		},
		{
			"children":[
				29
			],
			"name":"leg_hind_left_top1",
			"rotation":[
				1.881652451629634e-07,
				-0.42196279764175415,
				-0.36128994822502136,
				0.8315148949623108
			],
			"scale":[
				0.9999999403953552,
				0.9999999403953552,
				1
			],
			"translation":[
				-7.152557373046875e-07,
				11.151132583618164,
				-1.2516975402832031e-06
			]
		},
		{
			"children":[
				30
			],
			"name":"leg_hind_left_top0",
			"rotation":[
				0.5515184998512268,
				0.46141472458839417,
				-0.691746711730957,
				0.06641048938035965
			],
			"translation":[
				2.1553518081418588e-08,
				10.77692699432373,
				-4.74568594199809e-07
			]
		},
		{
			"name":"leg_hind_right_toe_end",
			"rotation":[
				-1.5236637906229644e-12,
				1.8776223242866763e-08,
				-9.09905505976083e-13,
				1
			],
			"translation":[
				2.950496025277971e-07,
				3.0000078678131104,
				2.3685959149588598e-07
			]
		},
		{
			"children":[
				32
			],
			"name":"leg_hind_right_toe",
			"rotation":[
				0.05299711227416992,
				-0.7051178812980652,
				-0.7051186561584473,
				0.05298838019371033
			],
			"scale":[
				0.9999998211860657,
				0.9999998807907104,
				0.9999998211860657
			],
			"translation":[
				-3.281165845692158e-07,
				13.0465726852417,
				-1.354763298877515e-06
			]
		},
		{
			"children":[
				33
			],
			"name":"leg_hind_right_ankle",
			"rotation":[
				0.06687914580106735,
				-0.8899202346801758,
				0.3633917272090912,
				0.26742419600486755
			],
			"scale":[
				1.0000001192092896,
				1.000000238418579,
				1.0000001192092896
			],
			"translation":[
				-5.960464477539062e-07,
				12.013757705688477,
				-2.1457672119140625e-06
			]
		},
		{
			"children":[
				34
			],
			"name":"leg_hind_right_bot0",
			"rotation":[
				8.34863111975892e-09,
				0.8924314379692078,
				-0.3824107050895691,
				0.23943305015563965
			],
			"scale":[
				0.9999998807907104,
				0.9999998807907104,
				1.0000001192092896
			],
			"translation":[
				-2.4288408440042986e-07,
				12.520023345947266,
				-5.815919621454668e-07
			]
		},
		{
			"children":[
				35
			],
			"name":"leg_hind_right_top1",
			"rotation":[
				-8.022201569701792e-08,
				0.40599411725997925,
				0.36944425106048584,
				0.835870623588562
			],
			"scale":[
				1.0000001192092896,
				1,
				1
			],
			"translation":[
				-3.5762786865234375e-07,
				11.3339204788208,
				-1.430511474609375e-06
			]
		},
		{
			"children":[
				36
			],
			"name":"leg_hind_right_top0",
			"rotation":[
				0.5427588820457458,
				-0.4638316035270691,
				0.6953703761100769,
				0.0820554569363594
			],
			"scale":[
				1,
				0.9999998807907104,
				0.9999999403953552
			],
			"translation":[
				2.1553518081418588e-08,
				10.77692699432373,
				-4.74568594199809e-07
			]
		},
		{
			"children":[
				25,
				31,
				37
			],
			"name":"body_bot",
			"rotation":[
				-0.9935665726661682,
				0.0032603039871901274,
				-0.0048878309316933155,
				0.11309710890054703
			],
			"scale":[
				1,
				1,
				1.0000009536743164
			],
			"translation":[
				-4.0978193283081055e-08,
				-8.578645065426826e-07,
				-1.7869751900434494e-07
			]
		},
		{
			"children":[
				17,
				38
			],
			"name":"body",
			"rotation":[
				0.7637978792190552,
				3.033086315440414e-08,
				0.005875394679605961,
				0.6454287767410278
			],
			"translation":[
				0.15000000596046448,
				38.97075653076172,
				-11.05038833618164
			]
		},
		{
			"children":[
				39
			],
			"name":"root",
			"rotation":[
				-0.7071031928062439,
				0,
				0,
				0.7071103453636169
			],
			"translation":[
				0,
				2.2737367544323206e-13,
				31.850868225097656
			]
		},
		{
			"mesh":0,
			"name":"Poodle_Portrait_0428141001_texture",
			"skin":0
		},
		{
			"children":[
				41,
				40
			],
			"name":"rig",
			"rotation":[
				0.7071068286895752,
				0,
				0,
				0.7071068286895752
			]
		}
	],
	"materials":[
		{
			"doubleSided":true,
			"name":"Material.001",
			"pbrMetallicRoughness":{
				"baseColorTexture":{
					"index":0
				},
				"metallicFactor":0,
				"roughnessFactor":0.5
			}
		}
	],
	"meshes":[
		{
			"name":"Poodle_Portrait_0428141001_texture",
			"primitives":[
				{
					"attributes":{
						"POSITION":0,
						"NORMAL":1,
						"TEXCOORD_0":2,
						"JOINTS_0":3,
						"WEIGHTS_0":4
					},
					"indices":5,
					"material":0
				}
			]
		}
	],
	"textures":[
		{
			"sampler":0,
			"source":0
		}
	],
	"images":[
		{
			"mimeType":"image/png",
			"name":"texture_0",
			"uri":"texture_0.png"
		}
	],
	"skins":[
		{
			"inverseBindMatrices":6,
			"joints":[
				40,
				39,
				17,
				16,
				3,
				2,
				1,
				0,
				9,
				8,
				7,
				6,
				5,
				4,
				15,
				14,
				13,
				12,
				11,
				10,
				38,
				25,
				24,
				23,
				22,
				21,
				20,
				19,
				18,
				31,
				30,
				29,
				28,
				27,
				26,
				37,
				36,
				35,
				34,
				33,
				32
			],
			"name":"rig"
		}
	],
	"accessors":[
		{
			"bufferView":0,
			"componentType":5126,
			"count":29344,
			"max":[
				17.583969116210938,
				31.85087013244629,
				34.29762268066406
			],
			"min":[
				-17.583969116210938,
				-31.85087013244629,
				-34.2976188659668
			],
			"type":"VEC3"
		},
		{
			"bufferView":1,
			"componentType":5126,
			"count":29344,
			"type":"VEC3"
		},
		{
			"bufferView":2,
			"componentType":5126,
			"count":29344,
			"type":"VEC2"
		},
		{
			"bufferView":3,
			"componentType":5121,
			"count":29344,
			"type":"VEC4"
		},
		{
			"bufferView":4,
			"componentType":5126,
			"count":29344,
			"type":"VEC4"
		},
		{
			"bufferView":5,
			"componentType":5123,
			"count":29994,
			"type":"SCALAR"
		},
		{
			"bufferView":6,
			"componentType":5126,
			"count":41,
			"type":"MAT4"
		}
	],
	"bufferViews":[
		{
			"buffer":0,
			"byteLength":352128,
			"byteOffset":0,
			"target":34962
		},
		{
			"buffer":0,
			"byteLength":352128,
			"byteOffset":352128,
			"target":34962
		},
		{
			"buffer":0,
			"byteLength":234752,
			"byteOffset":704256,
			"target":34962
		},
		{
			"buffer":0,
			"byteLength":117376,
			"byteOffset":939008,
			"target":34962
		},
		{
			"buffer":0,
			"byteLength":469504,
			"byteOffset":1056384,
			"target":34962
		},
		{
			"buffer":0,
			"byteLength":59988,
			"byteOffset":1525888,
			"target":34963
		},
		{
			"buffer":0,
			"byteLength":2624,
			"byteOffset":1585876
		}
	],
	"samplers":[
		{
			"magFilter":9729,
			"minFilter":9987
		}
	],
	"buffers":[
		{
			"byteLength":1588500,
			"uri":"Poodle_Portrait_0428141001_texture.bin"
		}
	]
}
